# Blender v2.66 (sub 1) OBJ File: 'bike.blend'
# www.blender.org
mtllib bikeFrontWheel.mtl
o FrontWheel_Cylinder.001
v 0.092493 0.354360 0.855501
v 0.150000 -0.000000 0.837423
v 0.092494 0.654772 0.654772
v 0.150000 -0.320468 0.773678
v 0.092494 0.855501 0.354360
v 0.150000 -0.592148 0.592148
v 0.092494 0.925988 -0.000000
v 0.150000 -0.773679 0.320468
v 0.092494 0.855501 -0.354361
v 0.149999 -0.837424 -0.000000
v 0.092494 0.654772 -0.654773
v 0.150000 -0.773679 -0.320469
v 0.092493 0.354360 -0.855502
v 0.150000 -0.592148 -0.592149
v 0.092493 -0.000000 -0.925988
v 0.150000 -0.320468 -0.773679
v 0.092493 -0.354360 -0.855502
v 0.150000 -0.000000 -0.837424
v 0.092493 -0.654772 -0.654773
v 0.150000 0.320468 -0.773679
v 0.092493 -0.855501 -0.354361
v 0.150000 0.592148 -0.592149
v 0.092492 -0.925988 -0.000000
v 0.150000 0.773679 -0.320469
v 0.092493 -0.855501 0.354360
v 0.150001 0.837424 -0.000000
v 0.092493 -0.654772 0.654772
v 0.150000 0.773679 0.320468
v 0.092493 -0.354360 0.855501
v 0.150000 0.592148 0.592148
v 0.092493 -0.000000 0.925987
v 0.150000 0.320468 0.773679
v -0.092493 0.354360 0.855501
v -0.150000 -0.000000 0.837423
v -0.092494 0.654772 0.654772
v -0.150000 -0.320468 0.773678
v -0.092494 0.855501 0.354360
v -0.150000 -0.592148 0.592148
v -0.092494 0.925988 -0.000000
v -0.150000 -0.773679 0.320468
v -0.092494 0.855501 -0.354361
v -0.149999 -0.837424 -0.000000
v -0.092494 0.654772 -0.654773
v -0.150000 -0.773679 -0.320469
v -0.092493 0.354360 -0.855502
v -0.150000 -0.592148 -0.592149
v -0.092493 -0.000000 -0.925988
v -0.150000 -0.320468 -0.773679
v -0.092493 -0.354360 -0.855502
v -0.150000 -0.000000 -0.837424
v -0.092493 -0.654772 -0.654773
v -0.150000 0.320468 -0.773679
v -0.092493 -0.855501 -0.354361
v -0.150000 0.592148 -0.592149
v -0.092492 -0.925988 -0.000000
v -0.150000 0.773679 -0.320469
v -0.092493 -0.855501 0.354360
v -0.150001 0.837424 -0.000000
v -0.092493 -0.654772 0.654772
v -0.150000 0.773679 0.320468
v -0.092493 -0.354360 0.855501
v -0.150000 0.592148 0.592148
v -0.092493 -0.000000 0.925987
v -0.150000 0.320468 0.773679
v 0.000000 0.000000 0.950000
v 0.000000 -0.363549 0.877685
v 0.000000 -0.671751 0.671751
v 0.000001 -0.877686 0.363549
v 0.000001 -0.950000 -0.000000
v 0.000001 -0.877686 -0.363550
v 0.000000 -0.671751 -0.671752
v 0.000000 -0.363549 -0.877686
v 0.000000 -0.000000 -0.950000
v -0.000000 0.363549 -0.877686
v -0.000000 0.671751 -0.671752
v -0.000001 0.877686 -0.363550
v -0.000001 0.950000 -0.000000
v -0.000001 0.877685 0.363549
v -0.000000 0.671751 0.671751
v -0.000000 0.363549 0.877686
v 0.150000 -0.320468 0.773678
v 0.150000 -0.000000 0.837423
v 0.150000 -0.592148 0.592148
v 0.150000 -0.773679 0.320468
v 0.149999 -0.837424 -0.000000
v 0.150000 -0.773679 -0.320469
v 0.150000 -0.592148 -0.592149
v 0.150000 -0.320468 -0.773679
v 0.150000 -0.000000 -0.837424
v 0.150000 0.320468 -0.773679
v 0.150000 0.592148 -0.592149
v 0.150000 0.773679 -0.320469
v 0.150001 0.837424 -0.000000
v 0.150000 0.773679 0.320468
v 0.150000 0.592148 0.592148
v 0.150000 0.320468 0.773679
v -0.150000 -0.320468 0.773678
v -0.150000 -0.000000 0.837423
v -0.150000 -0.592148 0.592148
v -0.150000 -0.773679 0.320468
v -0.149999 -0.837424 -0.000000
v -0.150000 -0.773679 -0.320469
v -0.150000 -0.592148 -0.592149
v -0.150000 -0.320468 -0.773679
v -0.150000 -0.000000 -0.837424
v -0.150000 0.320468 -0.773679
v -0.150000 0.592148 -0.592149
v -0.150000 0.773679 -0.320469
v -0.150001 0.837424 -0.000000
v -0.150000 0.773679 0.320468
v -0.150000 0.592148 0.592148
v -0.150000 0.320468 0.773679
vt 0.704919 0.672500
vt 0.714138 0.626156
vt 0.724838 0.630588
vt 0.740389 0.586867
vt 0.748579 0.595057
vt 0.779678 0.560616
vt 0.784110 0.571317
vt 0.826022 0.551397
vt 0.826022 0.562980
vt 0.872366 0.560616
vt 0.867933 0.571317
vt 0.911654 0.586867
vt 0.903464 0.595057
vt 0.937906 0.626156
vt 0.927205 0.630588
vt 0.947124 0.672500
vt 0.935542 0.672500
vt 0.937906 0.718844
vt 0.927205 0.714411
vt 0.911654 0.758132
vt 0.903464 0.749942
vt 0.872366 0.784384
vt 0.867933 0.773683
vt 0.826022 0.793602
vt 0.826022 0.782020
vt 0.779678 0.784384
vt 0.784110 0.773683
vt 0.740389 0.758132
vt 0.716502 0.672500
vt 0.714138 0.718844
vt 0.724838 0.714411
vt 0.738169 0.760353
vt 0.711236 0.720045
vt 0.701779 0.672500
vt 0.778476 0.787285
vt 0.826022 0.796743
vt 0.873567 0.787285
vt 0.913875 0.760353
vt 0.940807 0.720045
vt 0.950265 0.672500
vt 0.940807 0.624954
vt 0.913875 0.584647
vt 0.873567 0.557714
vt 0.826022 0.548257
vt 0.778476 0.557714
vt 0.738169 0.584647
vt 0.711236 0.624954
vt 0.748579 0.749942
vn 0.564165 0.000000 0.825617
vn 0.564165 -0.315958 0.762780
vn 0.838679 -0.208380 0.503128
vn 0.564165 -0.583789 0.583789
vn 0.838679 -0.385083 0.385083
vn 0.564165 -0.762780 0.315958
vn 0.838679 -0.503128 0.208380
vn 0.564165 -0.825617 0.000000
vn 0.838679 -0.544572 0.000000
vn 0.564165 -0.762780 -0.315958
vn 0.838679 -0.503128 -0.208380
vn 0.564165 -0.583789 -0.583789
vn 0.838679 -0.385083 -0.385083
vn 0.564165 -0.315958 -0.762780
vn 0.838679 -0.208380 -0.503128
vn 0.564165 0.000000 -0.825617
vn 0.838679 0.000000 -0.544572
vn 0.564165 0.315958 -0.762780
vn 0.838679 0.208380 -0.503128
vn 0.564165 0.583789 -0.583789
vn 0.838679 0.385083 -0.385083
vn 0.564165 0.762780 -0.315958
vn 0.838679 0.503128 -0.208380
vn 0.564165 0.825617 0.000000
vn 0.838679 0.544572 0.000000
vn 0.564165 0.762780 0.315958
vn 0.838679 0.503128 0.208380
vn 0.564165 0.583789 0.583789
vn 1.000000 0.000000 0.000000
vn 0.564165 0.315958 0.762780
vn 0.838679 0.000000 0.544572
vn 0.838679 0.208380 0.503128
vn 0.000000 0.707083 0.707083
vn 0.000000 0.382672 0.923856
vn 0.000000 0.000000 1.000000
vn 0.000000 0.923856 0.382672
vn 0.000000 1.000000 0.000000
vn 0.000000 0.923856 -0.382672
vn 0.000000 0.707083 -0.707083
vn 0.000000 0.382672 -0.923856
vn 0.000000 0.000000 -1.000000
vn 0.000000 -0.382672 -0.923856
vn 0.000000 -0.707083 -0.707083
vn 0.000000 -0.923856 -0.382672
vn 0.000000 -0.999969 0.000000
vn 0.000000 -0.923856 0.382672
vn 0.000000 -0.707083 0.707083
vn 0.000000 -0.382672 0.923856
vn -0.564165 0.000000 0.825617
vn -0.838679 0.000000 0.544572
vn -0.564165 -0.315958 0.762780
vn -0.838679 -0.208380 0.503128
vn -0.564165 -0.583789 0.583789
vn -0.838679 -0.385083 0.385083
vn -0.564165 -0.762780 0.315958
vn -0.838679 -0.503128 0.208380
vn -0.564165 -0.825617 0.000000
vn -0.838679 -0.544572 0.000000
vn -0.564165 -0.762780 -0.315958
vn -0.838679 -0.503128 -0.208380
vn -0.564165 -0.583789 -0.583789
vn -0.838679 -0.385083 -0.385083
vn -0.564165 -0.315958 -0.762780
vn -0.838679 -0.208380 -0.503128
vn -0.564165 0.000000 -0.825617
vn -0.838679 0.000000 -0.544572
vn -0.564165 0.315958 -0.762780
vn -0.838679 0.208380 -0.503128
vn -0.564165 0.583789 -0.583789
vn -0.838679 0.385083 -0.385083
vn -0.564165 0.762780 -0.315958
vn -0.838679 0.503128 -0.208380
vn -0.564165 0.825617 0.000000
vn -0.838679 0.544572 0.000000
vn -0.564165 0.762780 0.315958
vn -0.838679 0.503128 0.208380
vn -0.838679 0.385083 0.385083
vn -1.000000 0.000000 0.000000
vn -0.564165 0.315958 0.762780
vn -0.838679 0.208380 0.503128
vn -0.564165 0.583789 0.583789
vn 0.838679 0.385083 0.385083
usemtl TextureMapped
s 1
f 31/1/1 29/2/2 4/3/3
f 29/2/2 27/4/4 6/5/5
f 27/4/4 25/6/6 8/7/7
f 25/6/6 23/8/8 10/9/9
f 23/8/8 21/10/10 12/11/11
f 21/10/10 19/12/12 14/13/13
f 19/12/12 17/14/14 16/15/15
f 17/14/14 15/16/16 18/17/17
f 15/16/16 13/18/18 20/19/19
f 13/18/18 11/20/20 22/21/21
f 11/20/20 9/22/22 24/23/23
f 9/22/22 7/24/24 26/25/25
f 7/24/24 5/26/26 28/27/27
f 5/26/26 3/28/28 28/27/27
f 81/3/29 83/5/29 82/29/29
f 1/30/30 31/1/1 2/29/31
f 3/28/28 1/30/30 96/31/32
f 79/32/33 80/33/34 1/30/30
f 80/33/34 65/34/35 31/1/1
f 78/35/36 79/32/33 3/28/28
f 77/36/37 78/35/36 5/26/26
f 76/37/38 77/36/37 7/24/24
f 75/38/39 76/37/38 9/22/22
f 74/39/40 75/38/39 11/20/20
f 73/40/41 74/39/40 13/18/18
f 72/41/42 73/40/41 15/16/16
f 71/42/43 72/41/42 17/14/14
f 70/43/44 71/42/43 19/12/12
f 69/44/45 70/43/44 21/10/10
f 68/45/46 69/44/45 23/8/8
f 67/46/47 68/45/46 25/6/6
f 66/47/48 67/46/47 27/4/4
f 65/34/35 66/47/48 29/2/2
f 63/1/49 34/29/50 61/2/51
f 61/2/51 36/3/52 59/4/53
f 59/4/53 38/5/54 57/6/55
f 57/6/55 40/7/56 55/8/57
f 55/8/57 42/9/58 53/10/59
f 53/10/59 44/11/60 51/12/61
f 51/12/61 46/13/62 49/14/63
f 49/14/63 48/15/64 47/16/65
f 47/16/65 50/17/66 45/18/67
f 45/18/67 52/19/68 43/20/69
f 43/20/69 54/21/70 41/22/71
f 41/22/71 56/23/72 39/24/73
f 39/24/73 58/25/74 37/26/75
f 37/26/75 60/27/76 62/48/77
f 97/3/78 98/29/78 99/5/78
f 33/30/79 112/31/80 63/1/49
f 35/28/81 62/48/77 33/30/79
f 79/32/33 35/28/81 80/33/34
f 80/33/34 33/30/79 65/34/35
f 78/35/36 37/26/75 79/32/33
f 77/36/37 39/24/73 78/35/36
f 76/37/38 41/22/71 77/36/37
f 75/38/39 43/20/69 76/37/38
f 74/39/40 45/18/67 75/38/39
f 73/40/41 47/16/65 74/39/40
f 72/41/42 49/14/63 73/40/41
f 71/42/43 51/12/61 72/41/42
f 70/43/44 53/10/59 71/42/43
f 69/44/45 55/8/57 70/43/44
f 68/45/46 57/6/55 69/44/45
f 67/46/47 59/4/53 68/45/46
f 66/47/48 61/2/51 67/46/47
f 65/34/35 63/1/49 66/47/48
f 2/29/31 31/1/1 4/3/3
f 4/3/3 29/2/2 6/5/5
f 6/5/5 27/4/4 8/7/7
f 8/7/7 25/6/6 10/9/9
f 10/9/9 23/8/8 12/11/11
f 12/11/11 21/10/10 14/13/13
f 14/13/13 19/12/12 16/15/15
f 16/15/15 17/14/14 18/17/17
f 18/17/17 15/16/16 20/19/19
f 20/19/19 13/18/18 22/21/21
f 22/21/21 11/20/20 24/23/23
f 24/23/23 9/22/22 26/25/25
f 26/25/25 7/24/24 28/27/27
f 3/28/28 30/48/82 28/27/27
f 83/5/29 84/7/29 82/29/29
f 84/7/29 85/9/29 82/29/29
f 85/9/29 86/11/29 82/29/29
f 86/11/29 87/13/29 82/29/29
f 87/13/29 88/15/29 82/29/29
f 88/15/29 89/17/29 82/29/29
f 89/17/29 90/19/29 82/29/29
f 90/19/29 91/21/29 82/29/29
f 91/21/29 92/23/29 82/29/29
f 92/23/29 93/25/29 82/29/29
f 93/25/29 94/27/29 82/29/29
f 94/27/29 95/48/29 82/29/29
f 95/48/29 32/31/29 82/29/29
f 96/31/32 1/30/30 2/29/31
f 30/48/82 3/28/28 96/31/32
f 3/28/28 79/32/33 1/30/30
f 1/30/30 80/33/34 31/1/1
f 5/26/26 78/35/36 3/28/28
f 7/24/24 77/36/37 5/26/26
f 9/22/22 76/37/38 7/24/24
f 11/20/20 75/38/39 9/22/22
f 13/18/18 74/39/40 11/20/20
f 15/16/16 73/40/41 13/18/18
f 17/14/14 72/41/42 15/16/16
f 19/12/12 71/42/43 17/14/14
f 21/10/10 70/43/44 19/12/12
f 23/8/8 69/44/45 21/10/10
f 25/6/6 68/45/46 23/8/8
f 27/4/4 67/46/47 25/6/6
f 29/2/2 66/47/48 27/4/4
f 31/1/1 65/34/35 29/2/2
f 34/29/50 36/3/52 61/2/51
f 36/3/52 38/5/54 59/4/53
f 38/5/54 40/7/56 57/6/55
f 40/7/56 42/9/58 55/8/57
f 42/9/58 44/11/60 53/10/59
f 44/11/60 46/13/62 51/12/61
f 46/13/62 48/15/64 49/14/63
f 48/15/64 50/17/66 47/16/65
f 50/17/66 52/19/68 45/18/67
f 52/19/68 54/21/70 43/20/69
f 54/21/70 56/23/72 41/22/71
f 56/23/72 58/25/74 39/24/73
f 58/25/74 60/27/76 37/26/75
f 35/28/81 37/26/75 62/48/77
f 64/31/78 111/48/78 110/27/78
f 98/29/78 64/31/78 110/27/78
f 99/5/78 98/29/78 110/27/78
f 100/7/78 99/5/78 101/9/78
f 99/5/78 110/27/78 101/9/78
f 110/27/78 109/25/78 101/9/78
f 108/23/78 107/21/78 106/19/78
f 109/25/78 108/23/78 106/19/78
f 101/9/78 109/25/78 106/19/78
f 102/11/78 101/9/78 106/19/78
f 104/15/78 106/19/78 105/17/78
f 103/13/78 102/11/78 106/19/78
f 104/15/78 103/13/78 106/19/78
f 112/31/80 34/29/50 63/1/49
f 62/48/77 112/31/80 33/30/79
f 35/28/81 33/30/79 80/33/34
f 33/30/79 63/1/49 65/34/35
f 37/26/75 35/28/81 79/32/33
f 39/24/73 37/26/75 78/35/36
f 41/22/71 39/24/73 77/36/37
f 43/20/69 41/22/71 76/37/38
f 45/18/67 43/20/69 75/38/39
f 47/16/65 45/18/67 74/39/40
f 49/14/63 47/16/65 73/40/41
f 51/12/61 49/14/63 72/41/42
f 53/10/59 51/12/61 71/42/43
f 55/8/57 53/10/59 70/43/44
f 57/6/55 55/8/57 69/44/45
f 59/4/53 57/6/55 68/45/46
f 61/2/51 59/4/53 67/46/47
f 63/1/49 61/2/51 66/47/48
