# Blender v2.66 (sub 1) OBJ File: 'hills.blend'
# www.blender.org
mtllib hills.mtl
o Torus.002
v -6.164250 2.251508 -9.092592
v -4.852411 -0.523577 -10.655129
v -7.000857 3.005420 -8.510789
v -4.880953 -0.594837 -7.522035
v -7.984307 3.105741 -7.648323
v -6.363969 -0.594837 -6.363953
v -8.846776 4.608244 -6.664864
v -6.465453 -0.594837 -4.910430
v -9.573493 2.841944 -5.577250
v -7.794236 -0.594837 -4.499987
v -10.152033 3.319240 -4.404086
v -7.678699 -0.594837 -3.444139
v -10.572493 4.289894 -3.165445
v -8.693335 -0.594837 -2.329362
v -10.827682 3.839411 -1.882508
v -7.695425 -0.594837 -1.174720
v -10.913231 4.007183 -0.577249
v -9.360231 -0.594837 2.080878
v -10.827679 4.317115 0.728010
v -13.912467 -0.594837 4.754290
v -5.692841 0.903591 -9.787224
v -9.887403 3.066001 -0.191985
v -7.924270 -0.096546 -5.975220
v -7.104925 2.368457 -6.909507
v -9.164263 0.229275 -3.827480
v -9.806131 1.932619 -1.431982
v -6.170648 0.932678 -7.728848
v -9.563701 2.422649 -2.650771
v -8.614653 -0.020042 -4.941987
v -12.897790 1.458266 3.104802
v 10.652542 3.897351 -2.682642
v 11.672169 -0.523577 0.238350
v 10.391963 3.864743 -3.667784
v 7.371151 -0.594837 -1.524786
v 9.917871 3.137911 -4.886905
v 7.418386 -0.594837 -3.803567
v 9.288704 4.282157 -6.033724
v 6.939846 -0.594837 -4.720544
v 8.515235 4.838704 -7.088602
v 5.784224 -0.594837 -5.019712
v 7.610694 6.299666 -8.033497
v 6.080309 -0.594837 -6.635500
v 6.590558 4.610247 -8.852242
v 5.979935 -0.594837 -9.091549
v 5.472274 4.238222 -9.530833
v 4.155731 -0.594837 -7.983101
v 4.274991 2.632396 -10.057648
v 2.249865 -0.594837 -7.758520
v 3.019188 2.354183 -10.423681
v 0.727371 -0.594837 -11.981236
v 11.144051 2.081017 -1.306096
v 3.562107 0.119791 -9.225454
v 8.325134 3.164478 -5.402725
v 8.922845 1.708294 -4.313248
v 6.731025 1.795133 -7.302509
v 4.699525 1.616328 -8.724978
v 9.373231 0.350929 -3.155082
v 5.761896 3.631413 -8.080317
v 7.590340 3.640646 -6.404860
v 1.615007 0.963600 -12.041393
v 0.792083 2.669015 10.956543
v -1.125273 -0.523577 11.653816
v 1.807508 3.006049 10.870991
v 1.174735 -0.594837 8.923005
v 3.090433 2.422162 10.615801
v 1.861724 -0.594837 7.986076
v 4.329084 2.839647 10.195337
v 2.922707 -0.594837 7.351816
v 5.502247 3.122963 9.616796
v 4.500000 -0.594837 7.794229
v 6.589859 4.027174 8.890078
v 3.897026 -0.594837 5.061131
v 7.573311 3.186691 8.027615
v 6.363957 -0.594837 6.363965
v 8.435783 3.207632 7.044156
v 6.379643 -0.594837 4.922123
v 9.162501 2.590468 5.956543
v 7.794229 -0.594837 4.500001
v 9.741043 2.354183 4.783380
v 11.672906 -0.594837 2.796849
v 0.036514 0.903591 11.322405
v 8.466742 1.306784 5.109979
v 3.874994 0.299406 9.136833
v 2.698277 0.903591 9.536276
v 6.022732 3.283107 7.896837
v 7.776358 0.903591 6.143211
v 1.479497 1.396625 9.778706
v 6.957011 1.838484 7.077497
v 4.989500 0.903591 8.587221
v 11.578012 0.963600 3.681445
vt 0.531893 0.669754
vt 0.480275 0.663956
vt 0.490184 0.615783
vt 0.452212 0.701259
vt 0.447017 0.626319
vt 0.414689 0.649081
vt 0.417358 0.605002
vt 0.386817 0.650076
vt 0.388076 0.623841
vt 0.357652 0.652235
vt 0.316948 0.695680
vt 0.329108 0.620556
vt 0.288188 0.679601
vt 0.251633 0.699467
vt 0.214887 0.602011
vt 0.141556 0.671597
vt 0.509775 0.700278
vt 0.488357 0.721500
vt 0.286920 0.734241
vt 0.255471 0.733627
vt 0.352523 0.730018
vt 0.317419 0.747991
vt 0.223360 0.732265
vt 0.459338 0.733454
vt 0.420830 0.762994
vt 0.385272 0.721962
vt 0.483428 0.461539
vt 0.430114 0.410565
vt 0.439515 0.346533
vt 0.395461 0.440027
vt 0.393572 0.371856
vt 0.356771 0.467149
vt 0.324806 0.474514
vt 0.369821 0.370050
vt 0.295238 0.427823
vt 0.307244 0.363660
vt 0.257885 0.466855
vt 0.222616 0.423030
vt 0.201618 0.364900
vt 0.178551 0.394415
vt 0.161814 0.346533
vt 0.109657 0.448922
vt 0.446073 0.501262
vt 0.422377 0.498601
vt 0.233911 0.491740
vt 0.200223 0.460373
vt 0.292727 0.537683
vt 0.265123 0.498849
vt 0.168535 0.459313
vt 0.391292 0.484371
vt 0.357534 0.503943
vt 0.327574 0.513579
vt 0.481914 0.916090
vt 0.429719 0.909150
vt 0.518265 0.888855
vt 0.399566 0.896015
vt 0.437717 0.856649
vt 0.370428 0.880319
vt 0.414692 0.841060
vt 0.338839 0.886509
vt 0.386141 0.830168
vt 0.288579 0.924810
vt 0.348864 0.845400
vt 0.251133 0.898723
vt 0.241150 0.835796
vt 0.217146 0.879575
vt 0.210464 0.822510
vt 0.186640 0.889143
vt 0.106788 0.904332
vt 0.085208 0.867977
vt 0.448723 0.950224
vt 0.423292 0.956592
vt 0.226520 0.940990
vt 0.195246 0.928111
vt 0.289962 0.956592
vt 0.256748 0.941324
vt 0.164420 0.922099
vt 0.391411 0.942236
vt 0.358748 0.945385
vt 0.326260 0.944807
vt 0.562590 0.636859
vt 0.365178 0.611101
vt 0.300559 0.599204
vt 0.090778 0.626869
vt 0.529445 0.406928
vt 0.343627 0.358119
vt 0.250063 0.362755
vt 0.082083 0.417758
vt 0.298640 0.798764
vt 0.180939 0.839771
vn 0.855770 0.490341 0.164861
vn 0.809564 0.474349 0.345744
vn 0.716727 0.593829 0.365520
vn 0.666372 0.495315 0.557268
vn 0.860988 0.371441 0.347362
vn 0.233589 0.644581 0.727928
vn 0.356059 0.775353 0.521531
vn 0.701010 0.643208 0.307932
vn 0.383862 0.910581 0.153172
vn 0.832514 0.545915 0.093966
vn 0.914060 0.391186 0.106876
vn 0.785913 0.599322 -0.151982
vn 0.912168 0.399915 0.089389
vn 0.895260 0.419599 0.149693
vn 0.657399 0.502335 0.561632
vn 0.516129 0.398206 0.758293
vn 0.299142 -0.352336 0.886746
vn 0.757988 0.547410 0.354625
vn 0.821162 0.558245 0.118442
vn 0.695364 0.708335 -0.121097
vn 0.925535 0.375988 0.044740
vn 0.853145 0.500992 0.145390
vn 0.844264 0.316507 0.432417
vn 0.650227 0.759545 -0.015961
vn 0.680715 0.389630 0.620289
vn 0.764275 0.303476 0.568987
vn -0.668569 0.449629 0.592273
vn -0.660573 0.689535 0.296884
vn -0.510483 0.836024 0.201056
vn -0.367748 0.501816 0.782861
vn -0.637562 0.648762 0.415448
vn -0.410962 0.530503 0.741356
vn -0.762444 0.581042 0.284646
vn -0.570421 0.410932 0.711142
vn -0.629017 0.359996 0.688986
vn -0.975677 0.212348 0.053987
vn -0.781121 0.431288 0.451430
vn -0.780725 0.427198 0.455977
vn 0.190252 0.140934 0.971557
vn -0.605121 0.763024 0.227119
vn -0.369427 0.788049 0.492416
vn -0.709738 0.505753 0.490371
vn -0.885769 0.269173 0.378033
vn -0.929380 0.300668 0.214087
vn -0.619190 0.392224 0.680258
vn -0.726981 0.298441 0.618366
vn -0.604053 0.351970 0.714988
vn -0.825159 0.562792 0.048677
vn -0.028932 -0.745445 0.665914
vn -0.637593 0.498489 0.587298
vn -0.327189 0.640522 0.694723
vn -0.558824 0.465316 0.686392
vn -0.686911 0.431959 -0.584399
vn -0.365368 0.511521 -0.777673
vn -0.711966 0.407178 -0.572069
vn -0.072573 0.559862 -0.825373
vn -0.552019 0.558458 -0.619160
vn -0.323466 0.720115 -0.613819
vn -0.306101 0.828791 -0.468368
vn -0.741081 0.525529 -0.417829
vn -0.178533 0.859584 -0.478744
vn -0.438215 0.753380 -0.490280
vn -0.566240 0.593371 -0.572039
vn -0.230140 0.534532 -0.813166
vn -0.491653 0.492630 -0.718009
vn -0.520432 0.663869 -0.537004
vn -0.651692 0.544053 -0.528459
vn -0.503861 0.562456 -0.655538
vn -0.379315 0.417219 -0.825831
vn -0.345164 0.431715 -0.833338
vn -0.017670 -0.195624 -0.980499
vn -0.224860 0.435408 -0.871670
vn -0.664663 0.475051 -0.576617
vn -0.451369 0.547227 -0.704825
vn -0.505081 0.668569 -0.545762
vn -0.321482 0.581896 -0.746971
vn -0.659627 -0.730125 -0.178228
vn -0.184393 0.595965 -0.781518
vn -0.411023 0.462050 -0.785821
vn -0.641591 0.426130 -0.637745
vn 0.866573 0.498611 0.019227
vn 0.451949 0.880673 0.141758
vn 0.769158 0.636158 -0.060579
vn 0.463088 0.404645 0.788537
vn -0.349437 0.424451 0.835292
vn -0.736381 0.472396 0.484268
vn -0.433302 -0.230781 0.871181
vn -0.824641 0.481155 0.297311
vn -0.446181 0.674581 -0.588061
vn -0.310587 0.388165 -0.867641
usemtl None
s 1
f 21/1/1 27/2/2 4/3/3
f 27/2/2 24/4/4 6/5/5
f 24/4/4 23/6/6 8/7/7
f 23/6/6 29/8/8 10/9/9
f 29/8/8 25/10/10 10/9/9
f 25/10/10 28/11/11 14/12/12
f 28/11/11 26/13/13 14/12/12
f 26/13/13 22/14/14 18/15/15
f 22/14/14 30/16/16 18/15/15
f 1/17/17 3/18/18 21/1/1
f 15/19/19 17/20/20 22/14/14
f 11/21/21 13/22/22 28/11/11
f 13/22/22 15/19/19 28/11/11
f 17/20/20 19/23/23 22/14/14
f 5/24/24 7/25/25 24/4/4
f 3/18/18 5/24/24 24/4/4
f 7/25/25 9/26/26 23/6/6
f 9/26/26 11/21/21 25/10/10
f 51/27/27 57/28/28 34/29/29
f 57/28/28 54/30/30 36/31/31
f 54/30/30 53/32/32 36/31/31
f 53/32/32 59/33/33 38/34/34
f 59/33/33 55/35/35 42/36/36
f 55/35/35 58/37/37 42/36/36
f 58/37/37 56/38/38 46/39/39
f 56/38/38 52/40/40 48/41/41
f 52/40/40 60/42/42 48/41/41
f 31/43/43 33/44/44 57/28/28
f 45/45/45 47/46/46 52/40/40
f 41/47/47 43/48/48 58/37/37
f 43/48/48 45/45/45 56/38/38
f 47/46/46 49/49/49 60/42/42
f 35/50/50 37/51/51 54/30/30
f 33/44/44 35/50/50 57/28/28
f 37/51/51 39/52/52 53/32/32
f 39/52/52 41/47/47 55/35/35
f 81/53/53 87/54/54 62/55/55
f 87/54/54 84/56/56 64/57/57
f 84/56/56 83/58/58 66/59/59
f 83/58/58 89/60/60 68/61/61
f 89/60/60 85/62/62 70/63/63
f 85/62/62 88/64/64 74/65/65
f 88/64/64 86/66/66 76/67/67
f 86/66/66 82/68/68 76/67/67
f 82/68/68 90/69/69 80/70/70
f 61/71/71 63/72/72 81/53/53
f 75/73/73 77/74/74 82/68/68
f 71/75/75 73/76/76 88/64/64
f 73/76/76 75/73/73 86/66/66
f 77/74/74 79/77/77 90/69/69
f 65/78/78 67/79/79 84/56/56
f 63/72/72 65/78/78 87/54/54
f 67/79/79 69/80/80 83/58/58
f 69/80/80 71/75/75 89/60/60
f 2/81/81 21/1/1 4/3/3
f 4/3/3 27/2/2 6/5/5
f 6/5/5 24/4/4 8/7/7
f 8/7/7 23/6/6 10/9/9
f 25/10/10 12/82/82 10/9/9
f 12/82/82 25/10/10 14/12/12
f 26/13/13 16/83/83 14/12/12
f 16/83/83 26/13/13 18/15/15
f 30/16/16 20/84/84 18/15/15
f 3/18/18 27/2/2 21/1/1
f 26/13/13 15/19/19 22/14/14
f 25/10/10 11/21/21 28/11/11
f 15/19/19 26/13/13 28/11/11
f 19/23/23 30/16/16 22/14/14
f 7/25/25 23/6/6 24/4/4
f 27/2/2 3/18/18 24/4/4
f 9/26/26 29/8/8 23/6/6
f 29/8/8 9/26/26 25/10/10
f 32/85/85 51/27/27 34/29/29
f 34/29/29 57/28/28 36/31/31
f 53/32/32 38/34/34 36/31/31
f 59/33/33 40/86/86 38/34/34
f 40/86/86 59/33/33 42/36/36
f 58/37/37 44/87/87 42/36/36
f 44/87/87 58/37/37 46/39/39
f 46/39/39 56/38/38 48/41/41
f 60/42/42 50/88/88 48/41/41
f 51/27/27 31/43/43 57/28/28
f 56/38/38 45/45/45 52/40/40
f 55/35/35 41/47/47 58/37/37
f 58/37/37 43/48/48 56/38/38
f 52/40/40 47/46/46 60/42/42
f 37/51/51 53/32/32 54/30/30
f 35/50/50 54/30/30 57/28/28
f 39/52/52 59/33/33 53/32/32
f 59/33/33 39/52/52 55/35/35
f 87/54/54 64/57/57 62/55/55
f 84/56/56 66/59/59 64/57/57
f 83/58/58 68/61/61 66/59/59
f 89/60/60 70/63/63 68/61/61
f 85/62/62 72/89/89 70/63/63
f 72/89/89 85/62/62 74/65/65
f 74/65/65 88/64/64 76/67/67
f 82/68/68 78/90/90 76/67/67
f 78/90/90 82/68/68 80/70/70
f 63/72/72 87/54/54 81/53/53
f 86/66/66 75/73/73 82/68/68
f 85/62/62 71/75/75 88/64/64
f 88/64/64 73/76/76 86/66/66
f 82/68/68 77/74/74 90/69/69
f 67/79/79 83/58/58 84/56/56
f 65/78/78 84/56/56 87/54/54
f 69/80/80 89/60/60 83/58/58
f 71/75/75 85/62/62 89/60/60
