# Blender v2.66 (sub 1) OBJ File: 'skybox.blend'
# www.blender.org
mtllib skybox.mtl
o Left_Plane
v -50.000031 -49.999969 50.000000
v -49.999969 50.000031 50.000000
v -50.000031 -49.999969 -50.000000
v -49.999969 50.000031 -50.000000
vt 0.000000 1.000000
vt 0.000000 0.000000
vt 1.000000 0.000000
vt 1.000000 1.000000
vn 1.000000 -0.000001 0.000000
usemtl Left
s off
f 2/1/1 1/2/1 3/3/1
f 4/4/1 2/1/1 3/3/1
o Right_Plane.001
v 49.999969 50.000031 50.000000
v 50.000031 -49.999969 50.000000
v 49.999969 50.000031 -50.000000
v 50.000031 -49.999969 -50.000000
vt 1.000000 0.000000
vt 1.000000 1.000000
vt 0.000000 0.000000
vt 0.000000 1.000000
vn -1.000000 -0.000001 0.000000
usemtl Right
s off
f 6/5/2 5/6/2 8/7/2
f 5/6/2 7/8/2 8/7/2
o Back_Plane.002
v 50.000000 50.000031 49.999969
v -50.000000 50.000031 49.999969
v 50.000000 -49.999969 50.000031
v -50.000000 -49.999969 50.000031
vt 1.000000 1.000000
vt 0.000000 1.000000
vt 1.000000 0.000000
vt 0.000000 0.000000
vn -0.000000 -0.000001 -1.000000
usemtl Back
s off
f 10/9/3 9/10/3 12/11/3
f 9/10/3 11/12/3 12/11/3
o Front_Plane.003
v 50.000000 -49.999969 -50.000031
v -50.000000 -49.999969 -50.000031
v 50.000000 50.000031 -49.999969
v -50.000000 50.000031 -49.999969
vt 0.000100 0.000102
vt 0.999897 0.000100
vt 0.999900 0.999898
vt 0.000100 0.999898
vn 0.000000 -0.000001 1.000000
usemtl Front
s off
f 14/13/4 13/14/4 15/15/4
f 16/16/4 14/13/4 15/15/4
o Top_Plane.004
v -49.999935 50.000065 50.000000
v 50.000065 49.999935 50.000000
v -49.999935 50.000065 -50.000000
v 50.000065 49.999935 -50.000000
vt 1.000000 1.000000
vt 0.000000 1.000000
vt 1.000000 0.000000
vt 0.000000 0.000000
vn -0.000001 -1.000000 0.000000
usemtl Top
s off
f 18/17/5 17/18/5 20/19/5
f 17/18/5 19/20/5 20/19/5
