# Blender v2.66 (sub 1) OBJ File: 'airplane.blend'
# www.blender.org
mtllib airplane.mtl
o Cube.002_Cube.003
v -0.100000 -0.395332 -2.970589
v 0.000000 -0.529022 -4.125630
v 0.100000 -0.395332 -2.970589
v 0.000000 0.617792 -4.244646
v 0.000000 0.617792 -3.863794
v 0.000000 -0.471640 -3.089590
v 0.000000 -0.471640 -4.289590
v -1.344000 -0.271640 -3.540704
v -1.400000 -0.271640 -4.075503
v 1.400000 -0.271640 -4.075503
v 1.344000 -0.271640 -3.540704
v 0.000000 -0.100000 1.000000
v 0.000000 -0.100000 -1.000000
v -4.368000 0.100000 0.248142
v -4.550000 0.100000 -0.643190
v 4.550000 0.100000 -0.643190
v 4.368000 0.100000 0.248142
v -0.000000 -0.600000 4.500546
v -0.000000 -0.600000 -4.699121
v 0.623538 0.510058 2.904387
v 0.519615 0.300000 -0.912069
v -0.623538 0.510058 2.904387
v -0.519615 0.300000 -0.912069
vt 0.918171 0.914709
vt 0.879944 0.914709
vt 0.906225 0.799600
vt 0.787454 0.813397
vt 0.793183 0.812634
vt 0.279731 0.464251
vt 0.720269 0.464251
vt 0.500000 0.477152
vt 0.711458 0.380108
vt 0.288542 0.380108
vt 0.500000 0.294164
vt 0.074525 0.675770
vt 0.925475 0.675770
vt 0.500000 0.707356
vt 0.908456 0.592421
vt 0.091544 0.592421
vt 0.500000 0.523894
vt 0.040395 0.792476
vt 0.963788 0.792476
vt 0.182029 0.907158
vt 0.588483 0.884393
vt 0.579320 0.881379
vt 0.217082 0.901002
vn 0.022034 0.656423 -0.754051
vn 0.033570 0.996368 0.078158
vn 0.007813 0.045900 -0.998901
vn -0.549974 0.574358 0.606281
vn 0.551134 0.581744 0.598132
vn -0.880459 0.063326 -0.469802
vn 0.885372 0.060518 -0.460891
vn 0.002625 -0.402783 -0.915281
vn 0.869747 0.069491 0.488571
vn -0.864956 0.073611 0.496384
vn 0.003937 -0.239814 0.970794
vn -0.892331 0.018860 -0.450972
vn 0.895566 0.017762 -0.444563
vn 0.001465 -0.265389 -0.964110
vn 0.823817 0.021149 0.566424
vn -0.820399 0.022767 0.571306
vn 0.002655 -0.141667 0.989898
vn 0.000519 -0.389050 0.921201
vn 0.000580 -0.154851 -0.987915
vn 0.807398 0.536882 0.244606
vn 0.853481 0.502579 -0.137638
vn -0.848384 0.510483 -0.139927
vn -0.805902 0.538469 0.246010
usemtl None
s 1
f 4/1/1 5/2/2 2/3/3
f 5/2/2 1/4/4 3/5/5
f 5/2/2 4/1/1 1/4/4
f 9/6/6 10/7/7 7/8/8
f 11/9/9 10/7/7 9/6/6
f 11/9/9 8/10/10 6/11/11
f 8/10/10 9/6/6 6/11/11
f 6/11/11 7/8/8 11/9/9
f 15/12/12 16/13/13 13/14/14
f 17/15/15 16/13/13 15/12/12
f 17/15/15 14/16/16 12/17/17
f 14/16/16 15/12/12 12/17/17
f 12/17/17 13/14/14 17/15/15
f 18/18/18 19/19/19 20/20/20
f 21/21/21 19/19/19 23/22/22
f 20/20/20 21/21/21 22/23/23
f 22/23/23 23/22/22 18/18/18
f 18/18/18 20/20/20 22/23/23
f 5/2/2 3/5/5 2/3/3
f 4/1/1 2/3/3 1/4/4
f 8/10/10 11/9/9 9/6/6
f 9/6/6 7/8/8 6/11/11
f 7/8/8 10/7/7 11/9/9
f 14/16/16 17/15/15 15/12/12
f 15/12/12 13/14/14 12/17/17
f 13/14/14 16/13/13 17/15/15
f 19/19/19 21/21/21 20/20/20
f 21/21/21 23/22/22 22/23/23
f 23/22/22 19/19/19 18/18/18
