# Blender v2.66 (sub 1) OBJ File: 'buildings.blend'
# www.blender.org
mtllib buildings.mtl
o Cylinder
v 0.000000 -1.000000 -10.000000
v 0.000000 2.236634 -10.000000
v 7.071068 -1.000000 -7.071068
v 7.071068 2.236634 -7.071068
v 10.000000 -1.000000 0.000000
v 10.000000 2.236634 0.000000
v 7.071068 -1.000000 7.071068
v 7.071068 2.236634 7.071068
v -0.000001 -1.000000 10.000000
v -0.000001 2.236634 10.000000
v -7.071069 -1.000000 7.071066
v -7.071069 2.236634 7.071066
v -10.000000 -1.000000 -0.000000
v -10.000000 2.236634 -0.000000
v -7.071069 -1.000000 -7.071066
v -7.071069 2.236634 -7.071066
vt 0.002657 0.139521
vt 0.502611 0.140046
vt 0.002435 0.350944
vt 1.002565 0.140572
vt 0.502389 0.351470
vt -0.004144 0.786542
vt 0.495810 0.786788
vt -0.004248 0.997966
vt 0.995764 0.787033
vt 0.495706 0.998212
vt 0.000046 0.572546
vt 0.500000 0.572546
vt 0.500000 0.783970
vt 0.999954 0.572546
vt 0.999954 0.783970
vt 0.500000 0.357546
vt 0.999954 0.357546
vt 0.999954 0.568970
vt 0.000046 0.357546
vt 0.500000 0.568970
vt 1.002343 0.351995
vt 0.995660 0.998457
vt 0.000046 0.783970
vt 0.000046 0.568970
vn 0.000000 0.000000 1.000000
vn -0.707083 0.000000 0.707083
vn -1.000000 0.000000 0.000000
vn -0.707083 0.000000 -0.707083
vn 0.000000 0.000000 -1.000000
vn 0.707083 0.000000 -0.707083
vn 1.000000 0.000000 0.000000
vn 0.707083 0.000000 0.707083
usemtl None
s 1
f 1/1/1 3/2/2 2/3/1
f 3/2/2 5/4/3 4/5/2
f 5/6/3 7/7/4 6/8/3
f 7/7/4 9/9/5 8/10/4
f 9/11/5 11/12/6 12/13/6
f 11/12/6 13/14/7 14/15/7
f 15/16/8 1/17/1 2/18/1
f 13/19/7 15/16/8 16/20/8
f 3/2/2 4/5/2 2/3/1
f 5/4/3 6/21/3 4/5/2
f 7/7/4 8/10/4 6/8/3
f 9/9/5 10/22/5 8/10/4
f 10/23/5 9/11/5 12/13/6
f 12/13/6 11/12/6 14/15/7
f 16/20/8 15/16/8 2/18/1
f 14/24/7 13/19/7 16/20/8
