# Blender v2.66 (sub 1) OBJ File: 'rider.blend'
# www.blender.org
mtllib rider.mtl
o Cube
v 0.823012 0.239520 -0.646900
v 0.748193 0.160182 0.581359
v 0.668094 1.249104 0.577083
v 0.668092 0.709839 1.116347
v 0.845468 1.519377 2.060451
v 0.736429 -1.131790 2.181893
v 0.736429 -1.559247 1.527184
v 0.845466 1.984141 2.525215
v 0.385801 2.895905 2.228654
v 0.398367 2.180274 2.944284
v 0.296462 3.009915 3.586020
v 0.355580 3.635529 3.057453
v 0.165451 3.310949 3.592497
v 0.762310 1.518417 2.478113
v 0.547816 2.521589 2.602970
v 1.066790 -0.048861 -0.358520
v 0.527805 3.253471 3.342464
v 0.956195 0.954606 0.871581
v 0.353988 2.516270 2.363153
v 0.261535 3.496986 3.406459
v 0.248087 2.516786 2.512184
v 1.121521 1.762154 1.791484
v 1.121520 2.314946 2.344275
v 1.343138 1.994316 2.023646
v 1.111789 2.266761 1.717692
v 1.140266 0.386286 2.898858
v 0.950561 0.671953 3.262438
v 1.140265 0.934028 3.464748
v 1.477229 0.725984 3.219880
v 0.640094 3.074975 3.159744
v 0.393508 2.787942 3.465769
v 0.502951 3.397141 2.769413
v -0.000000 2.000123 0.897452
v 1.051884 -1.410235 1.986923
v 0.347643 -1.437412 1.967893
v 0.735858 -2.905775 -0.021448
v 0.735858 -2.445418 -0.680014
v 1.158425 -2.766865 -0.527872
v 0.347072 -2.736797 -0.541893
v 1.230762 -0.100675 4.346380
v 1.120670 0.004902 4.511562
v 1.243317 0.184119 4.620598
v 1.448197 0.058932 4.446607
v 0.461923 2.392588 3.126487
v 0.645053 2.732765 2.815439
v 0.492272 3.079521 2.426749
v 1.214823 0.247485 3.111178
v 1.281673 -0.305837 4.891414
v 0.938853 -0.106288 4.942845
v 1.300867 0.222354 5.268710
v 1.637330 -0.005905 4.816179
v 1.231004 -0.223477 5.251712
v 0.981922 -3.638213 -0.103456
v 0.429139 -0.501354 -0.632944
v 1.105483 -1.771765 2.131794
v -0.823012 0.239520 -0.646900
v -0.748193 0.160182 0.581359
v 0.000000 -0.141944 0.646387
v -0.000000 0.361859 -0.926747
v -0.668094 1.249104 0.577083
v -0.668092 0.709839 1.116347
v 0.000000 0.542076 1.286286
v -0.000000 1.398499 0.429863
v -0.845468 1.519377 2.060451
v -0.736429 -1.131790 2.181893
v 0.000000 0.955494 1.854870
v -0.736429 -1.559247 1.527184
v -0.845466 1.984141 2.525215
v 0.000000 1.401655 2.301031
v 0.000000 2.151547 2.519269
v -0.000000 2.632088 2.038728
v 0.000000 2.257051 2.753778
v -0.000000 2.768620 2.260349
v -0.385801 2.895905 2.228654
v -0.398367 2.180274 2.944284
v 0.000000 2.055297 3.069262
v 0.000000 3.028258 2.096301
v -0.296462 3.009915 3.586020
v 0.000000 2.906671 3.689265
v 0.000000 3.710810 2.885126
v -0.355580 3.635529 3.057453
v -0.165451 3.310949 3.592497
v 0.000000 3.251998 3.651447
v 0.000000 3.554067 3.460962
v -0.762310 1.518417 2.478113
v -0.547816 2.521589 2.602970
v -1.066790 -0.048861 -0.358520
v -0.527805 3.253471 3.342464
v -0.956195 0.954606 0.871581
v -0.353988 2.516270 2.363153
v -0.261535 3.496986 3.406459
v -0.248087 2.516786 2.512184
v -1.121521 1.762154 1.791484
v -1.121520 2.314946 2.344275
v -1.343138 1.994316 2.023645
v -1.111789 2.266761 1.717692
v -1.140266 0.386286 2.898857
v -0.950561 0.671954 3.262437
v -1.140265 0.934029 3.464748
v -1.477229 0.725984 3.219880
v -0.640094 3.074975 3.159744
v 0.000000 2.626161 3.646404
v -0.393508 2.787942 3.465769
v -0.502951 3.397141 2.769413
v 0.000000 3.584127 2.462847
v 0.000000 2.099310 3.330480
v -0.347643 -1.437412 1.967893
v -0.735858 -2.905775 -0.021448
v -0.735858 -2.445418 -0.680014
v -1.158425 -2.766865 -0.527872
v -0.347072 -2.736797 -0.541893
v -1.230762 -0.100675 4.346380
v -1.120669 0.004901 4.511562
v -1.243317 0.184119 4.620597
v -1.448197 0.058932 4.446606
v -0.461923 2.392588 3.126487
v -0.645053 2.732765 2.815439
v -0.492272 3.079521 2.426749
v -1.214823 0.247485 3.111178
v -1.281673 -0.305837 4.891413
v -0.938853 -0.106289 4.942845
v -1.300867 0.222354 5.268710
v -1.637330 -0.005905 4.816179
v -1.231003 -0.223477 5.251711
v -0.981922 -3.638213 -0.103456
v -0.429139 -0.501354 -0.632944
v -0.000000 -0.473774 -0.432019
v -1.105483 -1.771765 2.131794
v 0.000000 3.940423 2.797398
v -0.000000 2.617888 1.655685
v 0.736301 -1.900572 2.500924
v 1.098415 -2.037461 1.223922
v -0.736301 -1.900572 2.500924
v -1.051884 -1.410235 1.986923
v -1.098415 -2.037461 1.223922
vt 0.117906 0.440680
vt 0.159591 0.387739
vt 0.179843 0.473869
vt 0.187940 0.386134
vt 0.169653 0.332762
vt 0.117906 0.389455
vt 0.117906 0.324097
vt 0.325130 0.085755
vt 0.432493 0.081160
vt 0.322887 0.129111
vt 0.769297 0.615686
vt 0.794694 0.633499
vt 0.674673 0.641450
vt 0.144674 0.090808
vt 0.120307 0.107325
vt 0.129383 0.075074
vt 0.118301 0.129154
vt 0.105793 0.101415
vt 0.136397 0.613251
vt 0.166228 0.603747
vt 0.141337 0.626264
vt 0.117906 0.614991
vt 0.117906 0.625512
vt 0.137222 0.694625
vt 0.117905 0.698192
vt 0.127242 0.680072
vt 0.133082 0.663764
vt 0.155332 0.675748
vt 0.117906 0.659828
vt 0.117906 0.676567
vt 0.039306 0.086322
vt 0.057222 0.104934
vt 0.022674 0.093787
vt 0.154459 0.582237
vt 0.441410 0.049968
vt 0.489570 0.092512
vt 0.117906 0.487899
vt 0.173916 0.499876
vt 0.795860 0.728951
vt 0.797246 0.762359
vt 0.679609 0.755720
vt 0.570172 0.574727
vt 0.567571 0.592670
vt 0.533043 0.552273
vt 0.797246 0.702510
vt 0.680252 0.724917
vt 0.473583 0.280949
vt 0.444308 0.342453
vt 0.301315 0.340107
vt 0.138605 0.651284
vt 0.165925 0.659478
vt 0.117906 0.647681
vt 0.668944 0.607170
vt 0.656459 0.641450
vt 0.780936 0.541394
vt 0.763981 0.568132
vt 0.667401 0.581740
vt 0.747940 0.596066
vt 0.117906 0.561344
vt 0.184231 0.527586
vt 0.436658 0.401541
vt 0.312927 0.368601
vt 0.498019 0.129070
vt 0.435179 0.129085
vt 0.785027 0.209314
vt 0.817141 0.184731
vt 0.977326 0.189918
vt 0.058474 0.071133
vt 0.081001 0.099129
vt 0.086309 0.129158
vt 0.076708 0.067913
vt 0.155543 0.091541
vt 0.168978 0.129145
vt 0.144618 0.129149
vt 0.164753 0.574606
vt 0.117906 0.587930
vt 0.175072 0.037717
vt 0.207174 0.022674
vt 0.213220 0.052727
vt 0.235025 0.027268
vt 0.308790 0.403490
vt 0.578932 0.746249
vt 0.664230 0.691768
vt 0.171811 0.626212
vt 0.108952 0.069000
vt 0.472895 0.530773
vt 0.448110 0.549150
vt 0.422824 0.514036
vt 0.063502 0.129160
vt 0.681173 0.686798
vt 0.578555 0.769440
vt 0.555207 0.755125
vt 0.572446 0.607798
vt 0.542259 0.582738
vt 0.577019 0.725609
vt 0.539390 0.734681
vt 0.533230 0.601892
vt 0.518931 0.580375
vt 0.535714 0.783531
vt 0.518931 0.753299
vt 0.872995 0.641450
vt 0.840041 0.583823
vt 0.916264 0.607956
vt 0.723120 0.922805
vt 0.713623 0.873798
vt 0.767074 0.891597
vt 0.910211 0.641450
vt 0.726146 0.828879
vt 0.940724 0.440686
vt 0.777378 0.444618
vt 0.756978 0.409697
vt 0.489587 0.165632
vt 0.441447 0.208199
vt 0.432515 0.177011
vt 0.518931 0.865915
vt 0.589011 0.897389
vt 0.537490 0.890996
vt 0.022674 0.280949
vt 0.066160 0.332762
vt 0.047873 0.386134
vt 0.076221 0.387739
vt 0.325150 0.172466
vt 0.356108 0.756439
vt 0.367610 0.659050
vt 0.377476 0.778926
vt 0.144687 0.167493
vt 0.129399 0.183233
vt 0.120313 0.150982
vt 0.105800 0.156897
vt 0.099416 0.613250
vt 0.094475 0.626264
vt 0.064001 0.626211
vt 0.098589 0.694624
vt 0.108570 0.680072
vt 0.102730 0.663763
vt 0.108968 0.189313
vt 0.039310 0.172004
vt 0.022674 0.164541
vt 0.057225 0.153388
vt 0.081354 0.582237
vt 0.069585 0.603746
vt 0.325709 0.208231
vt 0.025990 0.468910
vt 0.821358 0.056085
vt 0.706451 0.069434
vt 0.820043 0.022674
vt 0.286181 0.565552
vt 0.258486 0.532146
vt 0.289980 0.536760
vt 0.824872 0.082328
vt 0.710446 0.107354
vt 0.097207 0.651283
vt 0.069887 0.659477
vt 0.303543 0.560328
vt 0.319225 0.562914
vt 0.332860 0.658447
vt 0.284351 0.778926
vt 0.307481 0.660677
vt 0.308291 0.758206
vt 0.175112 0.220572
vt 0.155558 0.166755
vt 0.333547 0.738216
vt 0.061897 0.499876
vt 0.580435 0.466771
vt 0.606584 0.335389
vt 0.639524 0.459121
vt 0.547877 0.153744
vt 0.738315 0.152702
vt 0.578165 0.180545
vt 0.058483 0.187191
vt 0.081007 0.159188
vt 0.076720 0.190408
vt 0.071060 0.574606
vt 0.213254 0.205545
vt 0.207220 0.235601
vt 0.235071 0.230994
vt 0.025047 0.545544
vt 0.051582 0.527586
vt 0.641472 0.331253
vt 0.603741 0.056346
vt 0.601494 0.033262
vt 0.693156 0.103768
vt 0.603500 0.077073
vt 0.422824 0.566831
vt 0.364920 0.641035
vt 0.579377 0.049414
vt 0.557655 0.022674
vt 0.307591 0.525000
vt 0.565261 0.071068
vt 0.055970 0.473869
vt 0.284196 0.514036
vt 0.543367 0.054162
vt 0.878806 0.828878
vt 0.871209 0.883066
vt 0.812422 0.828878
vt 0.335151 0.824273
vt 0.377476 0.857657
vt 0.323195 0.872739
vt 0.897280 0.861186
vt 0.333438 0.918233
vt 0.938156 0.334534
vt 0.752018 0.343234
vt 0.776464 0.311015
vt 0.754829 0.278700
vt 0.199931 0.842897
vt 0.148153 0.846685
vt 0.141114 0.824273
vt 0.128354 0.870798
vt 0.455920 0.559995
vt 0.535343 0.828878
vt 0.849158 0.152702
vt 0.258486 0.375367
vt 0.783662 0.164943
vt 0.529329 0.913024
vt 0.518931 0.496046
vt 0.578089 0.323778
vt 0.142878 0.908615
vt 0.738315 0.186738
vt 0.735437 0.223843
vt 0.613350 0.280949
vt 0.607829 0.214765
vt 0.543367 0.197906
vt 0.267408 0.129123
vt 0.200001 0.129138
vt 0.325672 0.049990
vt 0.209823 0.468910
vt 0.933438 0.496046
vt 0.213139 0.280949
vt 0.473583 0.468688
vt 0.932810 0.409697
vt 0.706671 0.496046
vt 0.926578 0.364349
vt 0.974911 0.223868
vt 0.080479 0.675747
vt 0.703326 0.038783
vt 0.937571 0.278700
vt 0.977088 0.152702
vt 0.210766 0.545544
vt 0.752018 0.474101
vn -0.021821 -0.790887 0.611530
vn 0.562700 -0.614551 0.552843
vn 0.212653 -0.965636 -0.149266
vn 0.999176 -0.038575 0.011933
vn 0.775079 -0.034303 0.630879
vn 0.000000 -0.750298 0.661061
vn 0.000000 -0.020569 0.999786
vn 0.595630 0.576189 -0.559618
vn 0.607837 0.280618 -0.742790
vn -0.011109 0.718558 -0.695364
vn 0.877651 -0.305612 -0.369152
vn -0.123112 -0.789026 -0.601886
vn 0.708914 -0.637837 -0.300912
vn 0.538163 -0.095676 -0.837367
vn 0.721641 -0.506912 -0.471419
vn -0.009247 0.095004 -0.995422
vn 0.787133 0.311838 -0.532090
vn 0.597644 -0.793634 -0.113590
vn 0.813685 -0.416822 0.405133
vn -0.009064 -0.989837 -0.141820
vn 0.000000 -0.794000 0.607898
vn 0.459487 0.671102 0.581774
vn 0.000000 0.754662 0.656087
vn 0.355876 0.372173 0.857204
vn 0.522477 -0.021455 0.852351
vn 0.810724 0.315531 0.493088
vn 0.023743 -0.061190 0.997833
vn -0.001343 0.276040 0.961119
vn 0.634632 0.768609 0.080325
vn 0.921079 -0.120914 -0.370037
vn 0.141057 -0.664510 -0.733818
vn -0.084414 -0.571947 0.815912
vn -0.753441 -0.387768 0.530992
vn 0.967284 0.150731 -0.203955
vn 0.534867 0.731223 0.423292
vn -0.129765 0.715506 0.686422
vn -0.249306 0.950499 0.185369
vn -0.989624 0.078585 -0.120121
vn 0.060030 0.682730 0.728172
vn 0.996673 0.081179 -0.000397
vn 0.923093 0.294565 0.247108
vn 0.695853 -0.262276 0.668538
vn 0.972411 0.063967 0.224189
vn 0.009003 -0.370739 0.928678
vn -0.985076 -0.124180 0.118931
vn 0.053468 -0.892361 -0.448073
vn -0.227149 0.335063 0.914365
vn 0.021516 -0.302896 0.952757
vn 0.063906 0.579119 0.812708
vn 0.000000 -0.826319 -0.563158
vn 0.000793 0.312052 -0.950041
vn -0.934507 -0.007813 0.355846
vn 0.394848 0.281075 -0.874660
vn 0.024171 0.489059 -0.871883
vn 0.802667 0.528459 -0.276406
vn 0.000000 0.786065 -0.618091
vn 0.436476 0.744316 0.505387
vn -0.019410 0.990539 -0.135746
vn -0.152593 -0.100620 -0.983123
vn -0.078616 -0.933744 -0.349101
vn 0.669210 0.618488 -0.411786
vn 0.991760 -0.023316 -0.125828
vn 0.989776 -0.136814 -0.040040
vn 0.000000 0.761742 -0.647847
vn 0.000000 0.454482 -0.890744
vn 0.998444 0.020600 -0.051576
vn -0.108219 -0.932188 -0.345347
vn -0.990417 -0.112583 0.079714
vn 0.116825 -0.991394 -0.058626
vn -0.037263 -0.587664 0.808222
vn 0.832240 -0.098361 -0.545579
vn 0.239937 -0.937132 0.253334
vn -0.815210 -0.186071 -0.548418
vn -0.126408 -0.739067 0.661641
vn -0.146702 -0.668477 -0.729087
vn -0.922575 -0.138798 -0.359935
vn -0.604633 0.277352 -0.746635
vn -0.068300 -0.403027 0.912625
vn 0.998871 0.033601 -0.033235
vn 0.877346 -0.204840 0.433882
vn -0.778405 -0.070437 0.623768
vn -0.996734 -0.079928 0.010071
vn -0.564440 -0.612079 0.553819
vn -0.569353 0.590655 -0.571764
vn -0.105655 -0.990417 -0.088717
vn 0.122288 -0.787469 -0.604083
vn -0.897183 -0.324381 -0.299722
vn -0.776513 -0.507828 -0.372997
vn -0.718589 -0.494613 -0.488845
vn -0.526780 -0.108188 -0.843074
vn -0.791436 0.304361 -0.530045
vn -0.568102 -0.813105 -0.126743
vn -0.796136 -0.436598 0.418928
vn -0.989990 -0.120090 -0.073794
vn -0.469741 0.650319 0.596973
vn -0.407117 0.365642 0.836970
vn -0.547838 0.020722 0.836299
vn -0.633351 0.769646 0.080325
vn -0.960906 0.152532 -0.231025
vn -0.999207 0.036714 0.014344
vn -0.511887 0.750725 0.417524
vn 0.198737 0.971648 0.127903
vn -0.068209 0.673696 0.735832
vn 0.986206 -0.155766 0.055574
vn -0.694235 -0.247963 0.675649
vn -0.968841 0.090701 0.230415
vn 0.987579 -0.125889 -0.093753
vn 0.127720 -0.916501 -0.379070
vn 0.986267 -0.115238 0.118168
vn 0.154241 0.701590 0.695639
vn 0.204505 0.364757 0.908353
vn -0.348827 0.785394 0.511277
vn 0.759484 -0.453841 0.465987
vn -0.083163 0.600574 0.795190
vn 0.938871 -0.033448 0.342601
vn 0.832942 -0.159825 -0.529740
vn -0.322306 0.278329 -0.904752
vn -0.800470 0.300485 0.518571
vn -0.804651 0.524369 -0.278481
vn -0.663198 0.632344 -0.400311
vn -0.977569 0.020142 -0.209571
vn -0.068392 -0.908902 -0.411328
vn -0.999176 0.028230 -0.028291
vn -0.087191 -0.993072 -0.078402
vn 0.037263 -0.587664 0.808222
vn -0.834223 -0.101596 -0.541948
vn -0.239937 -0.937132 0.253334
vn 0.143345 -0.701193 0.698355
vn -0.002747 0.504105 -0.863613
vn -0.917325 0.326456 0.227729
vn -0.999451 -0.016480 -0.027985
vn -0.877346 -0.204840 0.433882
vn 0.076968 -0.415571 0.906278
vn -0.021119 0.680471 -0.732444
vn 0.000000 0.939390 -0.342784
usemtl Material
s 1
f 66/1/1 4/2/2 5/3/3
f 18/4/4 4/2/2 2/5/5
f 4/2/2 62/6/6 58/7/7
f 3/8/8 1/9/9 63/10/10
f 5/11/3 22/12/11 26/13/12
f 21/14/13 9/15/14 15/16/15
f 9/15/14 77/17/16 46/18/17
f 10/19/18 15/20/15 44/21/19
f 76/22/20 10/19/18 106/23/21
f 20/24/22 84/25/23 13/26/24
f 11/27/25 17/28/26 13/26/24
f 79/29/27 11/27/25 83/30/28
f 15/16/15 9/15/14 46/18/17
f 20/31/22 12/32/29 84/33/23
f 21/34/13 15/20/15 10/19/18
f 1/9/9 3/8/8 16/35/30
f 54/36/31 1/9/9 16/35/30
f 69/37/32 66/1/1 14/38/33
f 24/39/34 23/40/35 28/41/36
f 42/42/37 41/43/38 50/44/39
f 22/45/11 24/39/34 29/46/40
f 16/47/30 2/48/5 34/49/41
f 31/50/42 30/51/43 17/28/26
f 31/50/42 102/52/44 106/23/21
f 102/52/44 31/50/42 79/29/27
f 41/43/38 27/53/45 47/54/46
f 23/55/35 8/56/47 28/57/36
f 10/19/18 44/21/19 106/23/21
f 14/58/33 5/11/3 27/53/45
f 62/6/6 4/2/2 66/1/1
f 70/59/48 69/37/32 8/60/47
f 8/56/47 14/58/33 27/53/45
f 2/48/5 58/61/7 6/62/49
f 127/63/50 59/64/51 54/36/31
f 35/65/52 7/66/53 37/67/54
f 17/68/26 12/32/29 20/31/22
f 32/69/55 105/70/56 12/32/29
f 30/71/43 32/69/55 17/68/26
f 19/72/57 71/73/58 73/74/59
f 70/59/48 19/75/57 21/34/13
f 72/76/60 21/34/13 10/19/18
f 21/14/13 73/74/59 9/15/14
f 23/77/35 24/78/34 25/79/61
f 24/78/34 22/80/11 25/79/61
f 6/62/49 58/61/7 35/81/52
f 29/46/40 28/41/36 43/82/62
f 28/57/36 27/53/45 42/42/37
f 29/46/40 43/82/62 47/83/46
f 105/70/56 32/69/55 46/18/17
f 44/21/19 31/50/42 106/23/21
f 44/21/19 45/84/63 31/50/42
f 45/85/63 46/18/17 32/69/55
f 77/17/16 105/70/56 46/18/17
f 12/86/29 129/87/64 84/88/23
f 84/25/23 83/30/28 13/26/24
f 105/70/56 80/89/65 12/32/29
f 27/53/45 26/13/12 47/54/46
f 26/90/12 29/46/40 47/83/46
f 43/82/62 42/91/37 51/92/66
f 41/43/38 40/93/67 49/94/68
f 40/95/67 43/82/62 48/96/69
f 2/5/5 4/2/2 58/7/7
f 49/94/68 48/97/69 52/98/70
f 51/92/66 50/99/39 52/100/70
f 48/96/69 51/92/66 52/100/70
f 50/44/39 49/94/68 52/98/70
f 38/101/71 53/102/72 39/103/73
f 38/104/71 36/105/74 53/106/72
f 37/107/54 38/101/71 39/103/73
f 36/105/74 39/108/73 53/106/72
f 59/64/51 1/9/9 54/36/31
f 54/109/31 7/110/53 35/111/52
f 126/112/75 87/113/76 56/114/77
f 131/115/78 132/116/79 55/117/80
f 87/118/76 57/119/81 89/120/82
f 61/121/83 58/7/7 62/6/6
f 60/122/84 63/10/10 59/64/51
f 64/123/85 97/124/86 93/125/87
f 92/126/88 86/127/89 74/128/90
f 74/128/90 118/129/91 77/17/16
f 75/130/92 116/131/93 117/132/94
f 76/22/20 106/23/21 75/130/92
f 91/133/95 82/134/96 84/25/23
f 78/135/97 82/134/96 91/133/95
f 79/29/27 83/30/28 82/134/96
f 86/127/89 117/136/94 74/128/90
f 91/137/95 84/138/23 81/139/98
f 92/140/88 75/130/92 86/141/89
f 56/114/77 87/113/76 89/142/82
f 93/143/87 89/120/82 61/121/83
f 95/144/99 100/145/100 94/146/101
f 114/147/102 122/148/103 121/149/104
f 93/150/87 97/151/86 95/144/99
f 103/152/105 78/135/97 101/153/106
f 103/152/105 106/23/21 102/52/44
f 102/52/44 79/29/27 78/135/97
f 113/154/107 112/155/108 98/156/109
f 94/157/101 99/158/110 68/159/111
f 75/130/92 106/23/21 116/131/93
f 71/73/58 94/160/101 90/161/112
f 85/162/113 98/156/109 97/124/86
f 62/6/6 66/1/1 61/121/83
f 69/37/32 70/59/48 85/163/113
f 68/159/111 99/158/110 85/162/113
f 57/164/81 65/165/114 58/166/7
f 127/63/50 126/112/75 59/64/51
f 107/167/115 111/168/116 67/169/117
f 88/170/118 91/137/95 81/139/98
f 104/171/119 81/139/98 105/70/56
f 101/172/106 88/170/118 81/139/98
f 90/161/112 92/126/88 71/73/58
f 70/59/48 72/76/60 90/173/112
f 72/76/60 76/22/20 92/140/88
f 92/126/88 74/128/90 77/17/16
f 94/160/101 96/174/120 95/175/99
f 95/175/99 96/174/120 93/176/87
f 94/177/101 68/178/111 70/59/48
f 65/165/114 107/179/115 58/166/7
f 100/145/100 115/180/121 114/181/102
f 99/158/110 114/147/102 113/154/107
f 100/145/100 119/182/122 112/183/108
f 105/70/56 118/129/91 104/171/119
f 116/131/93 106/23/21 103/152/105
f 116/131/93 103/152/105 101/153/106
f 117/136/94 101/172/106 118/129/91
f 77/17/16 118/129/91 105/70/56
f 81/184/98 84/88/23 129/87/64
f 84/25/23 82/134/96 83/30/28
f 105/70/56 81/139/98 80/89/65
f 98/156/109 119/185/122 97/124/86
f 97/151/86 119/182/122 100/145/100
f 115/180/121 123/186/123 122/187/103
f 113/154/107 121/149/104 120/188/124
f 112/183/108 120/189/124 123/186/123
f 66/1/1 69/37/32 64/190/85
f 57/119/81 58/7/7 61/121/83
f 121/149/104 124/191/125 120/188/124
f 123/186/123 124/192/125 122/187/103
f 120/189/124 124/192/125 123/186/123
f 122/148/103 124/191/125 121/149/104
f 110/193/126 111/194/116 125/195/127
f 110/196/126 125/197/127 108/198/128
f 109/199/129 111/194/116 110/193/126
f 108/198/128 125/197/127 111/200/116
f 59/64/51 126/112/75 56/114/77
f 126/201/75 107/202/115 67/203/117
f 67/203/117 134/204/130 126/201/75
f 135/205/131 128/206/132 134/207/130
f 134/207/130 128/206/132 133/208/133
f 133/208/133 128/206/132 135/205/131
f 12/86/29 80/209/65 129/87/64
f 35/210/52 39/108/73 131/115/78
f 37/67/54 7/66/53 132/211/79
f 38/104/71 132/116/79 131/115/78
f 6/62/49 35/81/52 131/212/78
f 34/49/41 6/62/49 131/212/78
f 7/66/53 34/213/41 132/211/79
f 132/116/79 34/214/41 55/117/80
f 34/214/41 131/115/78 55/117/80
f 87/215/76 134/216/130 65/165/114
f 81/184/98 129/87/64 80/209/65
f 96/174/120 60/122/84 89/142/82
f 96/174/120 94/160/101 71/73/58
f 107/217/115 133/208/133 108/198/128
f 109/218/129 110/219/126 67/169/117
f 110/196/126 108/198/128 135/205/131
f 65/165/114 133/220/133 107/179/115
f 134/216/130 133/220/133 65/165/114
f 67/169/117 135/221/131 134/222/130
f 3/8/8 63/10/10 33/223/134
f 71/73/58 25/79/61 130/224/135
f 25/79/61 33/223/134 130/224/135
f 33/223/134 63/10/10 96/174/120
f 71/73/58 130/224/135 96/174/120
f 130/224/135 33/223/134 96/174/120
f 71/73/58 23/77/35 25/79/61
f 71/73/58 19/72/57 23/77/35
f 19/75/57 70/59/48 8/60/47
f 18/225/4 3/8/8 22/80/11
f 18/4/4 22/226/11 5/3/3
f 64/190/85 61/121/83 66/1/1
f 7/110/53 54/109/31 16/227/30
f 57/119/81 61/121/83 89/120/82
f 16/228/30 18/4/4 2/5/5
f 58/61/7 127/229/50 35/81/52
f 35/111/52 127/230/50 54/109/31
f 58/166/7 107/179/115 127/231/50
f 127/232/50 107/202/115 126/201/75
f 1/9/9 59/64/51 63/10/10
f 15/20/15 45/84/63 44/21/19
f 17/28/26 20/24/22 13/26/24
f 11/27/25 13/26/24 83/30/28
f 45/85/63 15/16/15 46/18/17
f 3/8/8 18/225/4 16/35/30
f 66/1/1 5/3/3 14/38/33
f 29/46/40 24/39/34 28/41/36
f 41/43/38 49/94/68 50/44/39
f 26/90/12 22/45/11 29/46/40
f 2/48/5 6/62/49 34/49/41
f 11/27/25 31/50/42 17/28/26
f 31/50/42 11/27/25 79/29/27
f 40/93/67 41/43/38 47/54/46
f 5/11/3 26/13/12 27/53/45
f 69/37/32 14/38/33 8/60/47
f 28/57/36 8/56/47 27/53/45
f 39/233/73 35/65/52 37/67/54
f 32/69/55 12/32/29 17/68/26
f 21/14/13 19/72/57 73/74/59
f 72/76/60 70/59/48 21/34/13
f 76/22/20 72/76/60 10/19/18
f 73/74/59 77/17/16 9/15/14
f 28/41/36 42/91/37 43/82/62
f 27/53/45 41/43/38 42/42/37
f 43/82/62 40/95/67 47/83/46
f 45/84/63 30/51/43 31/50/42
f 30/71/43 45/85/63 32/69/55
f 42/91/37 50/99/39 51/92/66
f 40/93/67 48/97/69 49/94/68
f 43/82/62 51/92/66 48/96/69
f 56/114/77 60/122/84 59/64/51
f 86/141/89 75/130/92 117/132/94
f 88/234/118 78/135/97 91/133/95
f 78/135/97 79/29/27 82/134/96
f 117/136/94 118/129/91 74/128/90
f 60/122/84 56/114/77 89/142/82
f 64/190/85 93/143/87 61/121/83
f 100/145/100 99/235/110 94/146/101
f 113/154/107 114/147/102 121/149/104
f 97/151/86 100/145/100 95/144/99
f 78/135/97 88/234/118 101/153/106
f 103/152/105 102/52/44 78/135/97
f 112/155/108 119/185/122 98/156/109
f 64/123/85 85/162/113 97/124/86
f 70/59/48 68/178/111 85/163/113
f 99/158/110 98/156/109 85/162/113
f 111/168/116 109/218/129 67/169/117
f 104/171/119 101/172/106 81/139/98
f 92/126/88 73/74/59 71/73/58
f 72/76/60 92/140/88 90/173/112
f 76/22/20 75/130/92 92/140/88
f 73/74/59 92/126/88 77/17/16
f 90/173/112 94/177/101 70/59/48
f 99/235/110 100/145/100 114/181/102
f 98/156/109 99/158/110 113/154/107
f 115/180/121 100/145/100 112/183/108
f 117/132/94 116/131/93 101/153/106
f 101/172/106 104/171/119 118/129/91
f 114/181/102 115/180/121 122/187/103
f 112/155/108 113/154/107 120/188/124
f 115/180/121 112/183/108 123/186/123
f 69/37/32 85/163/113 64/190/85
f 134/204/130 87/236/76 126/201/75
f 39/108/73 36/105/74 131/115/78
f 38/237/71 37/67/54 132/211/79
f 36/105/74 38/104/71 131/115/78
f 57/164/81 87/215/76 65/165/114
f 93/176/87 96/174/120 89/142/82
f 111/200/116 107/217/115 108/198/128
f 110/219/126 135/221/131 67/169/117
f 108/198/128 133/208/133 135/205/131
f 25/79/61 3/8/8 33/223/134
f 63/10/10 60/122/84 96/174/120
f 23/238/35 19/75/57 8/60/47
f 3/8/8 25/79/61 22/80/11
f 4/2/2 18/4/4 5/3/3
f 34/239/41 7/110/53 16/227/30
