# Blender v2.66 (sub 1) OBJ File: 'track.blend'
# www.blender.org
mtllib track.mtl
o Plane
v -1.000000 0.000000 1.000000
v -1.000000 0.000000 -1.000000
v -1.000000 1.000000 1.000000
v -1.000000 1.000000 -1.000000
v 1.000000 0.000000 1.000000
v 1.000000 0.000000 -1.000000
v 1.000000 1.000000 1.000000
v 1.000000 1.000000 -1.000000
vt 0.571146 0.021618
vt 0.023854 0.021618
vt 0.023854 0.295264
vt 0.571146 0.295264
vt 0.046317 0.358817
vt 0.659933 0.358817
vt 0.659933 0.972433
vt 0.046317 0.972433
vn 1.000000 0.000000 -0.000000
vn -1.000000 0.000000 0.000000
vn 0.000000 1.000000 -0.000000
usemtl None
s off
f 1/1/1 2/2/1 4/3/1
f 5/1/2 7/4/2 6/2/2
f 1/5/3 5/6/3 6/7/3
f 3/4/1 1/1/1 4/3/1
f 7/4/2 8/3/2 6/2/2
f 2/8/3 1/5/3 6/7/3
